<svg xmlns="http://www.w3.org/2000/svg" width="60" height="70" viewBox="0 0 60 70"><g transform="translate(4573 1768)"><rect width="60" height="70" rx="5" transform="translate(-4573 -1768)" fill="#cce5ff"/><path d="M0,0H60a0,0,0,0,1,0,0V15a5,5,0,0,1-5,5H5a5,5,0,0,1-5-5V0A0,0,0,0,1,0,0Z" transform="translate(-4573 -1718)" fill="#1b97ff"/><g transform="translate(-4242.184 -1555.386)"><g transform="translate(-315.816 -206.801)"><path d="M1119.686-178.038h-30.978a.75.75,0,0,1-.75-.75v-40a.75.75,0,0,1,.75-.75h19.046a.75.75,0,0,1,.75.75.75.75,0,0,1-.75.75h-18.3v38.5h29.478v-27.4a.75.75,0,0,1,.75-.75.75.75,0,0,1,.75.75v28.153A.75.75,0,0,1,1119.686-178.038Z" transform="translate(-1088.708 218.788)" fill="#1b97ff"/><path d="M1182.61-205.781h-11.521a1.162,1.162,0,0,1-1.162-1.159v-11.438a1.162,1.162,0,0,1,1.162-1.159.75.75,0,0,1,.528.218l11.934,11.848a.75.75,0,0,1,.222.532A1.162,1.162,0,0,1,1182.61-205.781Zm-11.183-1.5h10.188L1171.426-217.4Z" transform="translate(-1152.042 218.788)" fill="#1b97ff"/></g><path d="M-267.993-91.111h-17.913a.75.75,0,0,1-.75-.75.75.75,0,0,1,.75-.75h17.913a.75.75,0,0,1,.75.75A.75.75,0,0,1-267.993-91.111Z" transform="translate(-23.111 -88.811)" fill="#1b97ff"/><path d="M-267.993-120.068h-17.913a.75.75,0,0,1-.75-.75.75.75,0,0,1,.75-.75h17.913a.75.75,0,0,1,.75.75A.75.75,0,0,1-267.993-120.068Z" transform="translate(-23.111 -66.437)" fill="#1b97ff"/><path d="M-267.993-62.156h-17.913a.75.75,0,0,1-.75-.75.75.75,0,0,1,.75-.75h17.913a.75.75,0,0,1,.75.75A.75.75,0,0,1-267.993-62.156Z" transform="translate(-23.111 -111.184)" fill="#1b97ff"/></g><path d="M8.7-3.315A3.522,3.522,0,0,1,7.516-.786,4.165,4.165,0,0,1,4.7.137,3.745,3.745,0,0,1,1.685-1.152a5.284,5.284,0,0,1-1.1-3.538V-5.3a5.966,5.966,0,0,1,.506-2.529A3.791,3.791,0,0,1,2.54-9.505a4.05,4.05,0,0,1,2.184-.584A4.058,4.058,0,0,1,7.5-9.167,3.785,3.785,0,0,1,8.716-6.576H6.665a2.079,2.079,0,0,0-.537-1.4,1.987,1.987,0,0,0-1.4-.434,1.742,1.742,0,0,0-1.535.735,4.118,4.118,0,0,0-.523,2.28v.752a4.408,4.408,0,0,0,.489,2.358A1.71,1.71,0,0,0,4.7-1.538a2.025,2.025,0,0,0,1.418-.434,1.961,1.961,0,0,0,.537-1.343Zm6.788.7a1.052,1.052,0,0,0-.41-.892A5.38,5.38,0,0,0,13.6-4.16a10.467,10.467,0,0,1-1.688-.68,2.759,2.759,0,0,1-1.7-2.468,2.4,2.4,0,0,1,.455-1.439,2.965,2.965,0,0,1,1.306-.988,4.914,4.914,0,0,1,1.911-.355,4.473,4.473,0,0,1,1.9.386,3.026,3.026,0,0,1,1.3,1.09,2.853,2.853,0,0,1,.461,1.6H15.5a1.342,1.342,0,0,0-.431-1.063,1.77,1.77,0,0,0-1.21-.379,1.891,1.891,0,0,0-1.169.318,1,1,0,0,0-.417.837.96.96,0,0,0,.489.813,5.522,5.522,0,0,0,1.439.615,6.217,6.217,0,0,1,2.55,1.306,2.6,2.6,0,0,1,.8,1.941A2.4,2.4,0,0,1,16.57-.6a4.279,4.279,0,0,1-2.632.735,5.082,5.082,0,0,1-2.092-.42,3.31,3.31,0,0,1-1.439-1.152,2.95,2.95,0,0,1-.5-1.7h2.058q0,1.647,1.969,1.647a1.915,1.915,0,0,0,1.142-.3A.967.967,0,0,0,15.49-2.611Zm7.4.144,2.256-7.485h2.283L23.966,0h-2.14L18.374-9.953h2.276Z" transform="translate(-4556 -1703)" fill="#fff"/></g></svg>