<svg xmlns="http://www.w3.org/2000/svg" width="60" height="70" viewBox="0 0 60 70"><g transform="translate(4743 1767)"><rect width="60" height="70" rx="5" transform="translate(-4743 -1767)" fill="#cce5ff"/><path d="M0,0H60a0,0,0,0,1,0,0V15a5,5,0,0,1-5,5H5a5,5,0,0,1-5-5V0A0,0,0,0,1,0,0Z" transform="translate(-4743 -1717)" fill="#1b97ff"/><g transform="translate(-4412.184 -1554.386)"><g transform="translate(-315.816 -206.801)"><path d="M1119.686-178.038h-30.978a.75.75,0,0,1-.75-.75v-40a.75.75,0,0,1,.75-.75h19.046a.75.75,0,0,1,.75.75.75.75,0,0,1-.75.75h-18.3v38.5h29.478v-27.4a.75.75,0,0,1,.75-.75.75.75,0,0,1,.75.75v28.153A.75.75,0,0,1,1119.686-178.038Z" transform="translate(-1088.708 218.788)" fill="#1b97ff"/><path d="M1182.61-205.781h-11.521a1.162,1.162,0,0,1-1.162-1.159v-11.438a1.162,1.162,0,0,1,1.162-1.159.75.75,0,0,1,.528.218l11.934,11.848a.75.75,0,0,1,.222.532A1.162,1.162,0,0,1,1182.61-205.781Zm-11.183-1.5h10.188L1171.426-217.4Z" transform="translate(-1152.042 218.788)" fill="#1b97ff"/></g><path d="M-267.993-91.111h-17.913a.75.75,0,0,1-.75-.75.75.75,0,0,1,.75-.75h17.913a.75.75,0,0,1,.75.75A.75.75,0,0,1-267.993-91.111Z" transform="translate(-23.111 -88.811)" fill="#1b97ff"/><path d="M-267.993-120.068h-17.913a.75.75,0,0,1-.75-.75.75.75,0,0,1,.75-.75h17.913a.75.75,0,0,1,.75.75A.75.75,0,0,1-267.993-120.068Z" transform="translate(-23.111 -66.437)" fill="#1b97ff"/><path d="M-267.993-62.156h-17.913a.75.75,0,0,1-.75-.75.75.75,0,0,1,.75-.75h17.913a.75.75,0,0,1,.75.75A.75.75,0,0,1-267.993-62.156Z" transform="translate(-23.111 -111.184)" fill="#1b97ff"/></g><path d="M.889,0V-9.953H3.951A4.651,4.651,0,0,1,6.3-9.362,4.123,4.123,0,0,1,7.916-7.68,5.187,5.187,0,0,1,8.5-5.2v.458a5.2,5.2,0,0,1-.571,2.468A4.088,4.088,0,0,1,6.316-.6,4.686,4.686,0,0,1,3.972,0ZM2.939-8.292v6.645h.991A2.227,2.227,0,0,0,5.77-2.434a3.552,3.552,0,0,0,.649-2.249v-.526a3.609,3.609,0,0,0-.629-2.3,2.219,2.219,0,0,0-1.839-.783Zm15.5,3.541a6.008,6.008,0,0,1-.52,2.577A3.913,3.913,0,0,1,16.437-.465a4.113,4.113,0,0,1-2.218.6A4.141,4.141,0,0,1,12.01-.458a3.951,3.951,0,0,1-1.5-1.7,5.837,5.837,0,0,1-.54-2.54v-.492a5.977,5.977,0,0,1,.53-2.587,3.945,3.945,0,0,1,1.5-1.716,4.118,4.118,0,0,1,2.211-.6,4.118,4.118,0,0,1,2.211.6,3.945,3.945,0,0,1,1.5,1.716,5.96,5.96,0,0,1,.53,2.581ZM16.365-5.2A4.188,4.188,0,0,0,15.8-7.581a1.827,1.827,0,0,0-1.6-.813,1.827,1.827,0,0,0-1.593.8,4.141,4.141,0,0,0-.567,2.355v.485a4.241,4.241,0,0,0,.561,2.365,1.822,1.822,0,0,0,1.613.841,1.806,1.806,0,0,0,1.586-.81,4.216,4.216,0,0,0,.561-2.362ZM28.027-3.315A3.522,3.522,0,0,1,26.841-.786a4.165,4.165,0,0,1-2.82.923A3.745,3.745,0,0,1,21.01-1.152a5.284,5.284,0,0,1-1.1-3.538V-5.3a5.966,5.966,0,0,1,.506-2.529,3.791,3.791,0,0,1,1.446-1.678,4.05,4.05,0,0,1,2.184-.584,4.058,4.058,0,0,1,2.775.923A3.785,3.785,0,0,1,28.04-6.576H25.99a2.079,2.079,0,0,0-.537-1.4,1.987,1.987,0,0,0-1.4-.434,1.742,1.742,0,0,0-1.535.735,4.118,4.118,0,0,0-.523,2.28v.752a4.408,4.408,0,0,0,.489,2.358,1.71,1.71,0,0,0,1.542.745,2.025,2.025,0,0,0,1.418-.434,1.961,1.961,0,0,0,.537-1.343Z" transform="translate(-4727 -1702)" fill="#fff"/></g></svg>