<svg xmlns="http://www.w3.org/2000/svg" width="60" height="70" viewBox="0 0 60 70"><g transform="translate(4655 1767)"><rect width="60" height="70" rx="5" transform="translate(-4655 -1767)" fill="#cce5ff"/><g transform="translate(-4645.001 -1761.232)"><path d="M20.21,7.76c-.3-1.07-1-1.6-1.63-1.52a2.34,2.34,0,0,0-1.84,1.22c-.88,2,1,7.82,1.24,8.79-1.64,4.95-6.91,14.31-10.1,16.43a.47.47,0,0,1-.7-.53c.32-1,1.33-2.56,4.15-4.37a6.59,6.59,0,0,0,.55-.66c-3.35,1.63-7.69,4.26-5.08,6.22a2.31,2.31,0,0,0,.61.3c2,.74,4.8-1.68,7.61-7.17a51.76,51.76,0,0,1,9.14-2.33c3.87,2.63,6.46,3.17,8.22,2.49A2.68,2.68,0,0,0,33.86,25c-1.43,1.76-4.78.53-7.45-1.15,2.46-.27,5-.43,6.11-.08,1.4.44,1.35,1.13,1.34,1.23a1.86,1.86,0,0,0,0-1.48c-1.18-1.92-6.59-.8-8.56-.6a15.63,15.63,0,0,1-6.1-7.61c.81-3.1,1.67-5.35,1-7.58m-1.34,6.49c-.46-1.65-1.09-5.12-.37-6.76a.47.47,0,0,1,.74-.17c1.63,1.45.36,4.3-.37,6.93m4.27,9.12a39.27,39.27,0,0,0-7.93,2.47A61.249,61.249,0,0,0,18.5,17a20.18,20.18,0,0,0,4.64,6.33" fill="#1b97ff"/></g><path d="M0,0H60a0,0,0,0,1,0,0V15a5,5,0,0,1-5,5H5a5,5,0,0,1-5-5V0A0,0,0,0,1,0,0Z" transform="translate(-4655 -1717)" fill="#1b97ff"/><path d="M2.939-3.507V0H.889V-9.953H4.771a4.492,4.492,0,0,1,1.972.41A3.022,3.022,0,0,1,8.053-8.377a3.25,3.25,0,0,1,.458,1.719,2.858,2.858,0,0,1-1,2.307,4.171,4.171,0,0,1-2.772.844Zm0-1.661H4.771a1.8,1.8,0,0,0,1.241-.383,1.392,1.392,0,0,0,.427-1.094,1.642,1.642,0,0,0-.431-1.183,1.609,1.609,0,0,0-1.189-.465H2.939ZM10.2,0V-9.953h3.063a4.651,4.651,0,0,1,2.348.591A4.123,4.123,0,0,1,17.226-7.68,5.187,5.187,0,0,1,17.807-5.2v.458a5.2,5.2,0,0,1-.571,2.468A4.088,4.088,0,0,1,15.627-.6a4.686,4.686,0,0,1-2.345.6ZM12.25-8.292v6.645h.991a2.227,2.227,0,0,0,1.839-.786,3.552,3.552,0,0,0,.649-2.249v-.526a3.609,3.609,0,0,0-.629-2.3,2.219,2.219,0,0,0-1.839-.783ZM25.566-4.067H21.628V0H19.578V-9.953h6.48v1.661h-4.43v2.57h3.938Z" transform="translate(-4638 -1702)" fill="#fff"/></g></svg>